<svg width="320" height="32" viewBox="0 0 320 32" xmlns="http://www.w3.org/2000/svg"><g fill-rule="nonzero" fill="none"><g fill="#FFF"><path d="M45.82 18.57H42.7v6.59c0 .2-.16.37-.37.37h-3.18a.37.37 0 0 1-.37-.37V6.9c0-.2.16-.37.37-.37h6.69c2.24 0 3.98.5 5.19 1.5 1.22 1 1.83 2.41 1.83 4.24 0 1.3-.28 2.38-.84 3.24-.56.87-1.41 1.56-2.55 2.07l3.92 7.41c.13.24-.05.54-.32.54h-3.42c-.16 0-.32-.09-.39-.24l-3.44-6.72Zm-3.11-3.17h3.16c.98 0 1.74-.25 2.28-.75.54-.5.81-1.19.81-2.07 0-.9-.25-1.6-.76-2.11-.51-.51-1.29-.77-2.34-.77h-3.14v5.7h-.01ZM63.34 25.32c-.12-.3-.22-.65-.28-1.05-.91 1.02-2.1 1.53-3.56 1.53-1.38 0-2.53-.4-3.44-1.2-.91-.8-1.36-1.81-1.36-3.03 0-1.5.55-2.64 1.66-3.44 1.11-.8 2.71-1.2 4.81-1.21h1.74v-.81c0-.65-.17-1.17-.5-1.57-.34-.39-.86-.59-1.59-.59-.64 0-1.13.15-1.49.46-.29.24-.46.56-.52.95-.03.17-.18.3-.36.3H55.4c-.22 0-.39-.2-.36-.42.07-.66.32-1.28.73-1.85.5-.7 1.22-1.24 2.14-1.64.92-.4 1.96-.59 3.11-.59 1.74 0 3.12.44 4.14 1.31 1.02.87 1.53 2.1 1.53 3.69v6.12c.01 1.07.11 2 .44 2.74.11.25-.06.52-.33.52h-3.12a.393.393 0 0 1-.34-.22Zm-3.02-2.41c.56 0 1.07-.12 1.54-.37s.82-.58 1.04-1v-2.43h-1.41c-1.89 0-2.89.65-3.01 1.96l-.01.22c0 .47.17.86.5 1.16.32.3.78.46 1.35.46ZM76.95 21.63c0-.46-.23-.82-.69-1.09-.46-.27-1.19-.5-2.2-.71-3.36-.7-5.04-2.13-5.04-4.28 0-1.25.52-2.3 1.56-3.14 1.04-.84 2.4-1.26 4.08-1.26 1.79 0 3.22.42 4.3 1.27.97.76 1.5 1.73 1.6 2.91.02.21-.16.38-.37.38h-3.05c-.18 0-.33-.13-.36-.3-.05-.41-.22-.75-.5-1.03-.35-.35-.89-.53-1.63-.53-.64 0-1.13.14-1.47.43-.35.29-.52.65-.52 1.1 0 .42.2.75.59 1.01.4.26 1.06.48 2 .67.94.19 1.73.4 2.37.63 1.99.73 2.99 2 2.99 3.8 0 1.29-.55 2.33-1.66 3.13-1.1.8-2.53 1.19-4.28 1.19-1.18 0-2.23-.21-3.15-.63-.92-.42-1.64-1-2.16-1.74-.44-.61-.69-1.27-.76-1.97-.02-.22.14-.42.36-.42h2.86c.17 0 .33.12.36.29.08.53.32.95.71 1.25.46.36 1.08.53 1.85.53.72 0 1.27-.14 1.64-.41.38-.28.57-.64.57-1.08ZM95.58 18.6c0 2.17-.49 3.92-1.48 5.23-.99 1.31-2.32 1.96-4 1.96-1.43 0-2.58-.5-3.46-1.49v6.29c0 .2-.16.37-.37.37h-3.04a.37.37 0 0 1-.37-.37V11.78c0-.2.16-.37.37-.37h2.8c.19 0 .35.14.36.33l.1 1.05c.91-1.1 2.1-1.64 3.58-1.64 1.74 0 3.09.64 4.06 1.93.97 1.29 1.45 3.06 1.45 5.32v.2Zm-3.77-.27c0-1.31-.23-2.33-.7-3.04s-1.14-1.07-2.03-1.07c-1.18 0-2 .45-2.44 1.36v5.78c.46.93 1.28 1.4 2.47 1.4 1.8-.01 2.7-1.49 2.7-4.43ZM110.51 18.6c0 2.26-.48 4.03-1.45 5.29-.97 1.27-2.31 1.9-4.04 1.9-1.53 0-2.75-.59-3.67-1.76l-.13 1.18c-.02.18-.18.32-.36.32h-2.7a.37.37 0 0 1-.37-.37V5.85c0-.2.16-.37.37-.37h3.04c.2 0 .37.16.37.37v6.82c.87-1.02 2.01-1.53 3.43-1.53 1.72 0 3.07.63 4.05 1.9s1.47 3.05 1.47 5.34v.22h-.01Zm-3.77-.27c0-1.43-.23-2.47-.68-3.13-.45-.66-1.13-.99-2.02-.99-1.2 0-2.03.49-2.48 1.47v5.57c.46.99 1.3 1.49 2.51 1.49 1.22 0 2.02-.6 2.4-1.8.18-.57.27-1.44.27-2.61ZM119.15 25.79c-2.07 0-3.76-.63-5.06-1.91-1.3-1.27-1.95-2.96-1.95-5.08v-.37c0-1.42.27-2.69.82-3.8.55-1.12 1.32-1.98 2.33-2.58 1-.6 2.15-.91 3.44-.91 1.93 0 3.45.61 4.56 1.83 1.11 1.22 1.66 2.94 1.66 5.18v1.17c0 .2-.16.37-.37.37h-8.62c.12.92.49 1.66 1.1 2.22.61.56 1.39.84 2.33.84 1.31 0 2.36-.43 3.15-1.28.14-.16.4-.14.54.02l1.37 1.53c.12.13.13.33.02.47-.54.69-1.25 1.23-2.11 1.63-.97.45-2.04.67-3.21.67Zm-.43-11.6c-.75 0-1.36.25-1.82.76-.47.51-.76 1.23-.89 2.18h5.25v-.3c-.02-.84-.24-1.49-.68-1.95-.45-.46-1.06-.69-1.86-.69ZM135.01 14.54c0 .21-.19.38-.4.36a8.51 8.51 0 0 0-.96-.06c-1.43 0-2.36.48-2.81 1.45v8.87c0 .2-.16.37-.37.37h-3.04a.37.37 0 0 1-.37-.37V11.78c0-.2.16-.37.37-.37h2.85c.19 0 .35.15.36.34l.08 1.34c.76-1.3 1.8-1.94 3.14-1.94.31 0 .61.03.9.1.16.04.27.19.27.36l-.02 2.93ZM144.54 14.54c0 .21-.19.38-.4.36a8.51 8.51 0 0 0-.96-.06c-1.43 0-2.36.48-2.81 1.45v8.87c0 .2-.16.37-.37.37h-3.04a.37.37 0 0 1-.37-.37V11.78c0-.2.16-.37.37-.37h2.85c.19 0 .35.15.36.34l.08 1.34c.76-1.3 1.81-1.94 3.14-1.94.31 0 .61.03.9.1.16.04.27.19.27.36l-.02 2.93ZM152.14 20.19l2.53-8.52c.05-.16.19-.26.35-.26h3.26c.25 0 .43.25.35.49l-5.51 15.82-.31.74c-.84 1.84-2.24 2.77-4.18 2.77-.46 0-.92-.06-1.39-.17a.375.375 0 0 1-.28-.36v-2.19c0-.21.17-.37.38-.37l.37.01c.71 0 1.07-.13 1.42-.34.35-.22.63-.58.83-1.08l.44-1.16-4.78-13.67c-.08-.24.09-.49.35-.49h3.27c.16 0 .3.11.35.26l2.55 8.52ZM171.1 18.83v6.33c0 .2-.16.37-.37.37h-3.18a.37.37 0 0 1-.37-.37V6.9c0-.2.16-.37.37-.37h7.05c1.43 0 2.68.26 3.76.78 1.08.52 1.92 1.26 2.5 2.22.58.96.87 2.06.87 3.28 0 1.86-.64 3.33-1.91 4.4-1.27 1.07-3.04 1.61-5.29 1.61h-3.43v.01Zm0-3.17h3.5c1.04 0 1.82-.24 2.37-.73.54-.49.82-1.18.82-2.09 0-.93-.27-1.68-.82-2.26-.55-.57-1.3-.87-2.27-.89h-3.59v5.97h-.01ZM183.59 7.76c0-.57.19-1.03.57-1.4.38-.37.89-.55 1.55-.55.64 0 1.16.18 1.54.55.38.37.57.83.57 1.4s-.19 1.04-.58 1.41c-.39.37-.9.55-1.53.55s-1.15-.18-1.53-.55a1.9 1.9 0 0 1-.59-1.41Zm3.64 17.77h-3.05a.37.37 0 0 1-.37-.37V11.78c0-.2.16-.37.37-.37h3.05c.2 0 .37.16.37.37v13.39c-.01.19-.17.36-.37.36Z"/></g><path d="M286.49 2.55c1.19 0 2.16.97 2.16 2.16v22.58c0 1.19-.97 2.16-2.16 2.16h-85.8c-1.19 0-2.16-.97-2.16-2.16V4.71c0-1.19.97-2.16 2.16-2.16h85.8m0-1.78h-85.8c-2.18 0-3.94 1.76-3.94 3.94v22.58c0 2.18 1.76 3.94 3.94 3.94h85.8c2.18 0 3.94-1.76 3.94-3.94V4.71c0-2.18-1.77-3.94-3.94-3.94Z" fill="#FFF"/><g fill="#FFF"><path d="M206.59 23.53h10.86v2.05h-13.82V23.7l10.41-15.06H203.8V6.59h13.24v1.83zM225.71 25.84c-1.91 0-3.47-.63-4.67-1.88-1.2-1.26-1.8-2.94-1.8-5.04v-.44c0-1.4.27-2.65.8-3.75s1.28-1.96 2.24-2.58c.96-.62 2-.93 3.12-.93 1.83 0 3.26.6 4.28 1.81 1.02 1.21 1.53 2.94 1.53 5.19v1h-9.56c.03 1.39.44 2.51 1.22 3.37.78.86 1.77 1.28 2.97 1.28.85 0 1.57-.17 2.16-.52.59-.35 1.11-.81 1.55-1.38l1.47 1.15c-1.18 1.81-2.95 2.72-5.31 2.72Zm-.3-12.65c-.97 0-1.79.35-2.45 1.06-.66.71-1.07 1.7-1.23 2.98h7.07v-.18c-.07-1.23-.4-2.18-.99-2.85-.6-.67-1.4-1.01-2.4-1.01ZM240.85 13.63a7.38 7.38 0 0 0-1.19-.09c-1.58 0-2.66.67-3.22 2.02v10.02h-2.41V11.47h2.35l.04 1.63c.79-1.26 1.91-1.89 3.36-1.89.47 0 .83.06 1.07.18v2.24ZM242.16 18.39c0-1.38.27-2.63.82-3.73.54-1.1 1.3-1.96 2.27-2.56.97-.6 2.08-.9 3.32-.9 1.92 0 3.48.67 4.66 2 1.19 1.33 1.78 3.1 1.78 5.31v.17c0 1.37-.26 2.61-.79 3.7-.53 1.09-1.28 1.94-2.26 2.55-.98.61-2.1.91-3.37.91-1.91 0-3.46-.67-4.65-2-1.19-1.33-1.78-3.09-1.78-5.28v-.17Zm2.42.29c0 1.56.36 2.82 1.09 3.77.73.95 1.7 1.42 2.91 1.42 1.23 0 2.2-.48 2.92-1.44.72-.96 1.08-2.31 1.08-4.04 0-1.55-.37-2.8-1.1-3.76-.73-.96-1.71-1.44-2.93-1.44-1.19 0-2.15.47-2.88 1.42-.72.95-1.09 2.31-1.09 4.07Z"/></g><path d="M27.42 31.23H4.84C2.66 31.23.9 29.47.9 27.29V4.71C.9 2.53 2.66.77 4.84.77h22.58c2.18 0 3.94 1.76 3.94 3.94v22.58c0 2.17-1.76 3.94-3.94 3.94Z" fill="#CD2355"/><path d="M25.36 17.78c-.11-1.1-.6-2.08-1.3-2.59-.13-.44-.33-.84-.6-1.18-.04-.52-.26-1.53-1.28-2.42.11-.1.22-.22.3-.36.85-.38 1.45-1.18 1.52-1.77.45-.45.71-.99.74-1.53.01-.25-.04-.49-.13-.69.38-.41.5-.89.34-1.35-.25-.74-1.15-1.22-2.34-1.27-.32-.29-.77-.45-1.3-.45-.23 0-.47.03-.7.09-.19-.09-.43-.14-.69-.14-.45 0-.94.14-1.32.36-.05-.01-.11-.01-.16-.01-.59 0-1.19.41-1.49.65-.3.24-.57.52-.78.82-.21-.29-.48-.57-.78-.82-.3-.24-.9-.65-1.49-.65-.05 0-.11 0-.16.01-.38-.22-.87-.36-1.32-.36-.26 0-.5.05-.69.14-.23-.06-.48-.09-.7-.09-.54 0-.98.15-1.3.45-1.2.05-2.09.53-2.34 1.27-.16.46-.04.94.34 1.35-.1.2-.14.44-.13.69.02.54.28 1.07.74 1.53.07.59.67 1.39 1.52 1.77.08.14.18.26.3.36-1.02.89-1.24 1.91-1.28 2.42-.28.34-.48.73-.6 1.18-.7.52-1.2 1.49-1.3 2.59-.11 1.09.19 2.11.81 2.76.08.49.36 1.13.66 1.52.06.83.41 1.65 1 2.31.59.67 1.37 1.14 2.21 1.31.5.47 1.04.8 1.77 1.09.32.32 1.24 1.09 2.78 1.09 1.54 0 2.46-.77 2.78-1.09.72-.29 1.26-.62 1.77-1.09a4.11 4.11 0 0 0 2.21-1.31c.59-.67.94-1.49 1-2.31.3-.39.58-1.03.66-1.52.53-.64.83-1.66.73-2.76Zm-4.13-3.34c-.72-.39-1.41-.97-1.92-1.61-.69-.82-.24-1.18.84-.99.81.2 1.58.84 1.91 1.6.39 1.03.09 1.52-.83 1Zm-2.86-8.72c.06-.02.13.03.12.1-.03.28.14.25.18.2.44-.55.92-.68 1.34-.64.07.01.11.09.06.15-.17.25.01.3.08.25.68-.43 1.34-.43 1.59-.25.05.03.05.11.01.15-.25.22-.11.32-.02.29.7-.25 1.65-.03 1.99.25.04.04.05.11 0 .14-.42.37-.63.68-.73 1.27-.02.17.26.13.37.1.06-.01.12.03.12.09.01.4-.37.84-.93 1.22-.08.05-.06.17.11.18.08.01.11.08.08.14-.2.37-.47.72-1.4.96-.09.02-.1.14-.01.18.08.04.08.11.03.16-.93.8-3.27.48-3.57-.86-.01-.03 0-.05.02-.08.56-.74 1.85-2.2 3.89-2.96.08-.03.05-.16-.04-.14-1.98.29-3.38 1.4-4.23 2.55-.03.04-.08.05-.12.03-1.51-.78-.27-3.08 1.06-3.48Zm-2.24 5.93c.29 0 1.04.03 1.82.64 1.31 1.09-.19 1.86-1.82 1.86-1.63 0-3.13-.77-1.82-1.86.79-.62 1.54-.64 1.82-.64Zm-6.6-2.3c-.03-.06 0-.13.08-.14.17 0 .18-.13.11-.18-.56-.38-.94-.82-.93-1.22 0-.06.06-.1.12-.09.12.03.39.07.37-.1-.09-.59-.3-.89-.73-1.27-.04-.04-.04-.11 0-.14.33-.28 1.29-.5 1.99-.25.09.03.23-.07-.02-.29a.1.1 0 0 1 .01-.15c.25-.18.9-.18 1.59.25.07.04.25 0 .08-.25-.04-.06-.01-.15.06-.15.42-.04.89.09 1.34.64.04.05.21.09.18-.2-.01-.07.06-.12.12-.1 1.33.41 2.57 2.7 1.06 3.48-.04.02-.09.01-.12-.03a6.41 6.41 0 0 0-4.23-2.55c-.09-.01-.12.11-.04.14 2.04.76 3.34 2.22 3.89 2.96.02.02.02.05.02.08-.3 1.34-2.65 1.65-3.57.86-.05-.05-.05-.13.03-.16.08-.04.08-.16-.01-.18-.93-.24-1.2-.59-1.4-.96Zm.68 4.09c.33-.76 1.1-1.4 1.91-1.6 1.09-.2 1.53.17.84.99-.52.64-1.2 1.22-1.92 1.61-.92.52-1.22.03-.83-1Zm-1.9 5.71c-.3-.79-.23-1.75.22-2.49.48-.82.97-.79 1.16-.09.25.92.15 2.02-.25 2.88-.36.7-.8.46-1.13-.3Zm3.49 5.33c-1.16-.24-2.15-1.41-2.19-2.6.18-4.23 6.27 3.32 2.19 2.6Zm.12-5.26c-1.02-.59-1.29-2.03-.6-3.22.69-1.19 2.07-1.68 3.09-1.09 1.02.59 1.29 2.03.6 3.22-.68 1.19-2.07 1.67-3.09 1.09Zm5.92 6.87c-.48.35-1.07.55-1.7.55-.64 0-1.22-.2-1.7-.55-1.01-.7.01-1.5 1.7-1.5s2.71.8 1.7 1.5Zm-1.71-2.56c-1.31 0-2.37-.91-2.37-2.03 0-1.12 1.06-2.03 2.37-2.03s2.37.91 2.37 2.03c0 1.12-1.06 2.03-2.37 2.03Zm1.12-5.4c-.69-1.19-.42-2.63.6-3.22 1.02-.59 2.41-.1 3.09 1.09.69 1.19.42 2.63-.6 3.22-1.02.58-2.4.1-3.09-1.09Zm3.22 6.35c-4.08.72 2.01-6.82 2.19-2.6-.05 1.18-1.03 2.35-2.19 2.6Zm3.49-5.33c-.32.77-.77 1.01-1.13.29-.4-.86-.5-1.96-.25-2.88.19-.7.68-.73 1.16.09.44.74.52 1.71.22 2.5Z" fill="#FFF"/><g fill="#FFF"><path d="M286.49 2.55c1.19 0 2.16.97 2.16 2.16v22.58c0 1.19-.97 2.16-2.16 2.16h-22.58c-1.19 0-2.16-.97-2.16-2.16V4.71c0-1.19.97-2.16 2.16-2.16h22.58m0-1.78h-22.58c-2.18 0-3.94 1.76-3.94 3.94v22.58c0 2.18 1.76 3.94 3.94 3.94h22.58c2.18 0 3.94-1.76 3.94-3.94V4.71c0-2.18-1.77-3.94-3.94-3.94Z"/><path d="M282.09 25.58h-12.44v-1.73l6.57-7.3c.97-1.1 1.65-2 2.01-2.69.37-.69.55-1.41.55-2.15 0-.99-.3-1.8-.9-2.44-.6-.64-1.4-.95-2.4-.95-1.2 0-2.13.34-2.8 1.02-.67.68-1 1.63-1 2.85h-2.41c0-1.75.56-3.16 1.69-4.24s2.63-1.62 4.52-1.62c1.76 0 3.16.46 4.19 1.39 1.03.93 1.54 2.16 1.54 3.7 0 1.87-1.19 4.09-3.57 6.68l-5.09 5.52h9.53v1.96h.01Z"/></g><path fill="#FFF" d="m302.27 19.59.37 2.5.54-2.26 3.76-13.25h2.11l3.67 13.25.52 2.3.4-2.56 2.95-12.99h2.52l-4.6 18.99h-2.28l-3.91-13.84-.3-1.45-.3 1.45-4.06 13.84h-2.28l-4.59-18.99h2.5z"/></g></svg>